# xmcd
#
# Track frame offsets:
#	150
#	19906
#	35501
#	53102
#	75650
#	91307
#	112321
#	134902
#	162567
#	187041
#	209015
#
# Disc length: 3171 seconds
#
# Revision: 1
# Processed by: cddbd v1.5.2PL0 Copyright (c) Steve Scherf et al.
# Submitted via: audiograbber 1.83.01
#
DISCID=a70c610b
DTITLE=Maz Mitrenko - Comin' Thru
DYEAR=2008
DGENRE=Blues
TTITLE0=I Take What I Want
TTITLE1=Shake The Blues
TTITLE2=Copperhead Road
TTITLE3=Calling Card
TTITLE4=Down In France
TTITLE5=Hold On To The Blues
TTITLE6=Memphis Delta
TTITLE7=Hey Joe
TTITLE8=Wasn't Born In Mississippi
TTITLE9=The Thrill Is Gone
TTITLE10=All Along The Watchtower
EXTD=
EXTT0=
EXTT1=
EXTT2=
EXTT3=
EXTT4=
EXTT5=
EXTT6=
EXTT7=
EXTT8=
EXTT9=
EXTT10=
PLAYORDER=
